/* XPM */
static char *result[] = {
/* columns rows colors chars-per-pixel */
"32 32 173 2 ",
"   c #055C0A",
".  c #04650D",
"X  c #09670C",
"o  c #0B660D",
"O  c #006C0B",
"+  c #076B0E",
"@  c #01770C",
"#  c #046D14",
"$  c #106C12",
"%  c #0D7411",
"&  c #097215",
"*  c #097617",
"=  c #087D19",
"-  c #00970D",
";  c #0C8815",
":  c #038219",
">  c #06851C",
",  c #0C801C",
"<  c #0D851D",
"1  c #0F891E",
"2  c #0F8D1F",
"3  c #10841B",
"4  c #108D1E",
"5  c #00941A",
"6  c #029F18",
"7  c #0B9D1C",
"8  c #13921C",
"9  c #0AA11F",
"0  c #0DAD1E",
"q  c #0F8A21",
"w  c #0D8F23",
"e  c #108620",
"r  c #0B9522",
"t  c #089525",
"y  c #089427",
"u  c #0F9624",
"i  c #0A9922",
"p  c #0A9926",
"a  c #149421",
"s  c #149025",
"d  c #1C9221",
"f  c #119F21",
"g  c #199822",
"h  c #189D25",
"j  c #199D28",
"k  c #1C9F29",
"l  c #189E2E",
"z  c #2A8B3E",
"x  c #0FA329",
"c  c #0CA42C",
"v  c #0FAF28",
"b  c #09AB2F",
"n  c #0FAC2F",
"m  c #14AE2B",
"M  c #11A82D",
"N  c #15A92D",
"B  c #19AB2B",
"V  c #1EAC2B",
"C  c #1AAB2F",
"Z  c #0FB227",
"A  c #09B821",
"S  c #09B02B",
"D  c #0EBC2E",
"F  c #12B32B",
"G  c #15B12D",
"H  c #11BA2D",
"J  c #13BC2D",
"K  c #1DAF32",
"L  c #16B030",
"P  c #14B534",
"I  c #1DB530",
"U  c #15BB32",
"Y  c #15BB34",
"T  c #16BD36",
"R  c #19BE37",
"E  c #16B338",
"W  c #19B43B",
"Q  c #22A629",
"!  c #20A12D",
"~  c #21A62D",
"^  c #25A82F",
"/  c #20AC2E",
"(  c #22AF34",
")  c #24B435",
"_  c #25B436",
"`  c #24B736",
"'  c #23BB38",
"]  c #23BD39",
"[  c #20BD3B",
"{  c #0DC331",
"}  c #0BC933",
"|  c #0BCC3A",
" . c #11C130",
".. c #14C237",
"X. c #14C735",
"o. c #1DC339",
"O. c #10CE3A",
"+. c #1FCE39",
"@. c #1ECA3C",
"#. c #19CF3D",
"$. c #0FD43B",
"%. c #0FDC3F",
"&. c #13D439",
"*. c #17D03F",
"=. c #21C038",
"-. c #23C33D",
";. c #24C83F",
":. c #23CF3C",
">. c #32A350",
",. c #32B156",
"<. c #1CC642",
"1. c #16CF41",
"2. c #1ACE41",
"3. c #12D742",
"4. c #1ED740",
"5. c #1ED542",
"6. c #1BD345",
"7. c #1FD046",
"8. c #1ED646",
"9. c #17D842",
"0. c #13DB46",
"q. c #19D946",
"w. c #1CDD45",
"e. c #1CDD4A",
"r. c #26CB41",
"t. c #24CF48",
"y. c #23D042",
"u. c #21D441",
"i. c #21D442",
"p. c #26D545",
"a. c #24D24C",
"s. c #20DD4C",
"d. c #28D84F",
"f. c #2FDC54",
"g. c #14E346",
"h. c #15E346",
"j. c #14E347",
"k. c #1CE047",
"l. c #1DE846",
"z. c #17E74A",
"x. c #1CE248",
"c. c #1FE849",
"v. c #1BE355",
"b. c #1DEC52",
"n. c #1EEC53",
"m. c #1EF250",
"M. c #1FF351",
"N. c #18F553",
"B. c #1CF556",
"V. c #1EF855",
"C. c #1CFB55",
"Z. c #1BFD55",
"A. c #1FFF59",
"S. c #21E048",
"D. c #22E34E",
"F. c #20E64C",
"G. c #20E74D",
"H. c #20EA4D",
"J. c #25E94D",
"K. c #26EB55",
"L. c #30E75A",
"P. c #21F253",
"I. c #21F356",
"U. c #27F355",
"Y. c #28F255",
"T. c #26F058",
"R. c #38E567",
"E. c #3DEF63",
"W. c #2FFB6B",
"Q. c #28FF6C",
"!. c #44EF75",
"~. c #5FF08A",
"^. c None",
/* pixels */
"^.^.^.^.^.^.^.^.^.^.^.^.^.^.^.^.^.^.^.^.^.^.^.^.^.^.^.^.^.^.^.^.",
"^.^.^.^.^.^.^.^.^.^.^.^.^.^.^.^.^.^.^.^.^.^.^.^.^.^.^.^.^.^.^.^.",
"^.^.^.^.^.^.^.^.^.^.^.^.^.^.^.^.^.^.^.^.^.^.^.^.^.^.^.^.^.^.^.^.",
"^.^.^.^.^.^.^.^.^.^.^.^.^.^.^.^.^.^.^.^.^.^.^.^.^.^.^.^.^.^.^.^.",
"^.^.^.^.^.^.^.^.^.^.^.^.^.^.^.^.^.^.^.^.^.^.^.^.^.^.^.^.^.^.^.^.",
"^.^.^.^.^.^.^.^.^.^.^.^.^.^.^.^.^.^.^.^.^.^.^.^.^.^.^.^.^.^.^.^.",
"^.^.^.^.^.^.^.^.^.^.^.^.^.^.^.^.^.v.Q.W.^.^.^.^.^.^.^.^.^.^.^.^.",
"^.^.^.^.^.^.^.^.^.^.^.^.^.^.^.^.^.N.B.g.^.^.^.^.^.^.^.^.^.^.^.^.",
"^.^.^.^.^.^.^.^.^.^.^.^.Z.^.^.^.| A.j.^.^.^.^.^.^.^.^.^.^.^.^.^.",
"^.^.^.^.^.^.^.^.^.^.b V.h.^.^.^.C.b.^.^.^.^.^.^.^.^.^.^.^.^.^.^.",
"^.^.^.^.^.^.^.^.^.^.z.n.%.^.^.0.I.3.^.^.^.^.^.^.^.^.^.^.^.^.^.^.",
"^.^.^.^.1.T.K.^.^.S P.q.^.^.y M.e.^.^.^.^.^.^.^.^.^.^.^.^.^.^.^.",
"^.^.^.t x.6.^.^.^.m.s.} ^.^.9.D.O.^.^.^.^.^.^.^.^.^.^.^.^.^.^.^.",
"^.^.^.*.H.$.^.^.p ..&.^.^.c G.2.^.^.^.U.l.^.^.^.E W !.^.^.8.Y.L.",
"^.^.n F.9 ^.^.^.R.^.^.^.^.w.7.{ ^.^.P k.D ^.^.^.a.>.^.^.5 c.<.^.",
"^.^.Y 6 ^.^.^.T d.f.^.^.> X.#.^.^.w S.r ^.^.^.5.t.J.^.^.,.i  .^.",
"^.: ^.A ^.^.@ i.R ^.^.^.^.z ^.^.^.x - ^.^.^.M y.U ^.^.l ~.^.^.^.",
"^.J u.v ^.^.4.p.Z ^.^.F E.^.^.^.^.^.0 ^.^.. @.[ ^.^.^.H o.^.^.^.",
"= s < ^.^.# e , ^.^.^.q O ^.^.^.+.r.G ^.^.L -.m ^.^.u ;.N ^.^.^.",
"^.^.^.^.^.^.^.^.^.^.^.^.^.^.^.2 ' C ^.^.* =.K ^.^.& :.] ^.^.^.^.",
"^.^.^.^.^.^.^.^.^.^.^.^.^.^.^.I ( 7 ^.^.B _ f ^.^.1 j 4 ^.^.^.^.",
"^.^.^.^.^.^.^.^.^.^.^.^.^.^.a ) h ^.^.3 ` k ^.^.^.^.^.^.^.^.^.^.",
"^.^.^.^.^.^.^.^.^.^.^.^.^.+ / ! ^.^.  V ~ ; ^.^.^.^.^.^.^.^.^.^.",
"^.^.^.^.^.^.^.^.^.^.^.^.^.g ^ 8 ^.^.^.^.^.^.^.^.^.^.^.^.^.^.^.^.",
"^.^.^.^.^.^.^.^.^.^.^.^.% Q d ^.^.^.^.^.^.^.^.^.^.^.^.^.^.^.^.^.",
"^.^.^.^.^.^.^.^.^.^.^.^.o $ X ^.^.^.^.^.^.^.^.^.^.^.^.^.^.^.^.^.",
"^.^.^.^.^.^.^.^.^.^.^.^.^.^.^.^.^.^.^.^.^.^.^.^.^.^.^.^.^.^.^.^.",
"^.^.^.^.^.^.^.^.^.^.^.^.^.^.^.^.^.^.^.^.^.^.^.^.^.^.^.^.^.^.^.^.",
"^.^.^.^.^.^.^.^.^.^.^.^.^.^.^.^.^.^.^.^.^.^.^.^.^.^.^.^.^.^.^.^.",
"^.^.^.^.^.^.^.^.^.^.^.^.^.^.^.^.^.^.^.^.^.^.^.^.^.^.^.^.^.^.^.^.",
"^.^.^.^.^.^.^.^.^.^.^.^.^.^.^.^.^.^.^.^.^.^.^.^.^.^.^.^.^.^.^.^.",
"^.^.^.^.^.^.^.^.^.^.^.^.^.^.^.^.^.^.^.^.^.^.^.^.^.^.^.^.^.^.^.^."
};
