/* XPM */
static char *result[] = {
/* columns rows colors chars-per-pixel */
"16 16 45 1 ",
"  c #0E6A14",
". c #0F6B16",
"X c #167D1B",
"o c #008210",
"O c #018A16",
"+ c #0E8C11",
"@ c #12861E",
"# c #12951A",
"$ c #0AA71E",
"% c #1B8A2B",
"& c #099524",
"* c #1C9C2C",
"= c #05A626",
"- c #15A724",
"; c #0CB52B",
": c #12AE33",
"> c #16AD35",
", c #1DBB37",
"< c #1BBE38",
"1 c #23BB30",
"2 c #22BB32",
"3 c #02C72E",
"4 c #18C232",
"5 c #11CA34",
"6 c #11CF37",
"7 c #1DCA37",
"8 c #1AC33B",
"9 c #10E33B",
"0 c #21B344",
"q c #18C442",
"w c #22D247",
"e c #22D048",
"r c #34CE50",
"t c #37CB56",
"y c #2BD654",
"u c #30D351",
"i c #3BD55C",
"p c #12E846",
"a c #18EA4B",
"s c #14F448",
"d c #17F44F",
"f c #20EC50",
"g c #2BFF6E",
"h c #32F86E",
"j c None",
/* pixels */
"jjjjjjjjjjjjjjjj",
"jjjjjjjjjjjjjjjj",
"jjjjjjjjjjjjjjjj",
"jjjjjjjj=gjjjjjj",
"jjjjj3hjpjjjjjjj",
"jjajjsj:djjjjjjj",
"j&9jq6jfjjjjjjjj",
"jejjyj>5j8jjwj0;",
"Ouj$jjijorj<jjtj",
"jjjjjjjj7j%4j,jj",
"jjjjjjj*-j2jj@jj",
"jjjjjj 1j.#jjjjj",
"jjjjjjX+jjjjjjjj",
"jjjjjjjjjjjjjjjj",
"jjjjjjjjjjjjjjjj",
"jjjjjjjjjjjjjjjj"
};
