/* XPM */
static char *result[] = {
/* columns rows colors chars-per-pixel */
"64 64 173 2 ",
"   c #002600",
".  c #012C02",
"X  c #003603",
"o  c #014C07",
"O  c #024F0D",
"+  c #035206",
"@  c #005D03",
"#  c #04530A",
"$  c #075B0B",
"%  c #005F11",
"&  c #085E14",
"*  c #036106",
"=  c #02640B",
"-  c #08630E",
";  c #046D0E",
":  c #016513",
">  c #0A6617",
",  c #066D15",
"<  c #086D14",
"1  c #036F18",
"2  c #027615",
"3  c #0A7414",
"4  c #027B15",
"5  c #0F7E15",
"6  c #007E19",
"7  c #097D1B",
"8  c #078514",
"9  c #0B8312",
"0  c #018916",
"q  c #0D8C17",
"w  c #04851B",
"e  c #09861B",
"r  c #048B1D",
"t  c #0B8A1B",
"y  c #108B19",
"u  c #049417",
"i  c #07971A",
"p  c #0C931B",
"a  c #059C1B",
"s  c #099D1F",
"d  c #13941F",
"f  c #18901C",
"g  c #08A31F",
"h  c #0B8522",
"j  c #008E22",
"k  c #039522",
"l  c #099525",
"z  c #039C26",
"x  c #0B9D24",
"c  c #149620",
"v  c #1B9422",
"b  c #119B22",
"n  c #1B9A25",
"m  c #1A9E28",
"M  c #219E26",
"N  c #219D2A",
"B  c #0AA323",
"V  c #07AC25",
"C  c #0AAC25",
"Z  c #06A329",
"A  c #0EA329",
"S  c #07A92A",
"D  c #0AAB2A",
"F  c #13A427",
"G  c #1BA226",
"H  c #12A62A",
"J  c #1BA32B",
"K  c #15AA2B",
"L  c #1BAA2D",
"P  c #07B724",
"I  c #0CB32C",
"U  c #13B32E",
"Y  c #1BB22E",
"T  c #10BA2B",
"R  c #1BBA2F",
"E  c #16AA34",
"W  c #1CAE31",
"Q  c #0CBB34",
"!  c #16B532",
"~  c #1BB433",
"^  c #14BC35",
"/  c #1BBB36",
"(  c #1CBD39",
")  c #20A42C",
"_  c #22AC2E",
"`  c #22B62F",
"'  c #21AC32",
"]  c #20B434",
"[  c #23BC35",
"{  c #20B738",
"}  c #21BA3B",
"|  c #07D42F",
" . c #0DC132",
".. c #07C835",
"X. c #09C835",
"o. c #0ECB3A",
"O. c #14C434",
"+. c #1AC537",
"@. c #16CA35",
"#. c #1CCA36",
"$. c #15C539",
"%. c #1CC43B",
"&. c #15CC3D",
"*. c #1BCA3E",
"=. c #07D031",
"-. c #0BD43B",
";. c #14D33F",
":. c #19D23F",
">. c #22C436",
",. c #21C43E",
"<. c #21CE3E",
"1. c #2FBB45",
"2. c #17CF40",
"3. c #1CCD41",
"4. c #0ED040",
"5. c #0DDE41",
"6. c #17D343",
"7. c #1BD343",
"8. c #15DB45",
"9. c #1CDA45",
"0. c #17DF49",
"q. c #1CDC49",
"w. c #29C142",
"e. c #22CA41",
"r. c #2EC64C",
"t. c #23D543",
"y. c #20D946",
"u. c #2AD947",
"i. c #22D649",
"p. c #22D849",
"a. c #2ADE51",
"s. c #3CDF5F",
"d. c #16E247",
"f. c #1CE444",
"g. c #1FE845",
"h. c #15E44A",
"j. c #1CE44C",
"k. c #1BED4E",
"l. c #16F04E",
"z. c #1BF54E",
"x. c #1CEC51",
"c. c #1DF152",
"v. c #1CFC56",
"b. c #1FF158",
"n. c #23E247",
"m. c #22E44A",
"M. c #24EB4E",
"N. c #22FA4E",
"B. c #28E551",
"V. c #21EA55",
"C. c #34E355",
"Z. c #23FF57",
"A. c #27F459",
"S. c #2AF75C",
"D. c #21FA5B",
"F. c #28FA5B",
"G. c #25FD62",
"H. c #2AFD63",
"J. c #2AFF6A",
"K. c #34FF67",
"L. c #38FC64",
"P. c #37F168",
"I. c #2EFF74",
"U. c #4BDF69",
"Y. c #48E166",
"T. c #41FF6E",
"R. c #4BFF7C",
"E. c #42FC84",
"W. c #4DFF85",
"Q. c #64FF8F",
"!. c #69FF95",
"~. c #74FFA9",
"^. c None",
/* pixels */
"^.^.^.^.^.^.^.^.^.^.^.^.^.^.^.^.^.^.^.^.^.^.^.^.^.^.^.^.^.^.^.^.^.^.^.^.^.^.^.^.^.^.^.^.^.^.^.^.^.^.^.^.^.^.^.^.^.^.^.^.^.^.^.^.",
"^.^.^.^.^.^.^.^.^.^.^.^.^.^.^.^.^.^.^.^.^.^.^.^.^.^.^.^.^.^.^.^.^.^.^.^.^.^.^.^.^.^.^.^.^.^.^.^.^.^.^.^.^.^.^.^.^.^.^.^.^.^.^.^.",
"^.^.^.^.^.^.^.^.^.^.^.^.^.^.^.^.^.^.^.^.^.^.^.^.^.^.^.^.^.^.^.^.^.^.^.^.^.^.^.^.^.^.^.^.^.^.^.^.^.^.^.^.^.^.^.^.^.^.^.^.^.^.^.^.",
"^.^.^.^.^.^.^.^.^.^.^.^.^.^.^.^.^.^.^.^.^.^.^.^.^.^.^.^.^.^.^.^.^.^.^.^.^.^.^.^.^.^.^.^.^.^.^.^.^.^.^.^.^.^.^.^.^.^.^.^.^.^.^.^.",
"^.^.^.^.^.^.^.^.^.^.^.^.^.^.^.^.^.^.^.^.^.^.^.^.^.^.^.^.^.^.^.^.^.^.^.^.^.^.^.^.^.^.^.^.^.^.^.^.^.^.^.^.^.^.^.^.^.^.^.^.^.^.^.^.",
"^.^.^.^.^.^.^.^.^.^.^.^.^.^.^.^.^.^.^.^.^.^.^.^.^.^.^.^.^.^.^.^.^.^.^.^.^.^.^.^.^.^.^.^.^.^.^.^.^.^.^.^.^.^.^.^.^.^.^.^.^.^.^.^.",
"^.^.^.^.^.^.^.^.^.^.^.^.^.^.^.^.^.^.^.^.^.^.^.^.^.^.^.^.^.^.^.^.^.^.^.^.^.^.^.^.^.^.^.^.^.^.^.^.^.^.^.^.^.^.^.^.^.^.^.^.^.^.^.^.",
"^.^.^.^.^.^.^.^.^.^.^.^.^.^.^.^.^.^.^.^.^.^.^.^.^.^.^.^.^.^.^.^.^.^.^.^.^.^.^.^.^.^.^.^.^.^.^.^.^.^.^.^.^.^.^.^.^.^.^.^.^.^.^.^.",
"^.^.^.^.^.^.^.^.^.^.^.^.^.^.^.^.^.^.^.^.^.^.^.^.^.^.^.^.^.^.^.^.^.^.^.^.^.^.^.^.^.^.^.^.^.^.^.^.^.^.^.^.^.^.^.^.^.^.^.^.^.^.^.^.",
"^.^.^.^.^.^.^.^.^.^.^.^.^.^.^.^.^.^.^.^.^.^.^.^.^.^.^.^.^.^.^.^.^.^.^.^.^.^.^.^.^.^.^.^.^.^.^.^.^.^.^.^.^.^.^.^.^.^.^.^.^.^.^.^.",
"^.^.^.^.^.^.^.^.^.^.^.^.^.^.^.^.^.^.^.^.^.^.^.^.^.^.^.^.^.^.^.^.^.^.^.^.^.^.^.^.^.^.^.^.^.^.^.^.^.^.^.^.^.^.^.^.^.^.^.^.^.^.^.^.",
"^.^.^.^.^.^.^.^.^.^.^.^.^.^.^.^.^.^.^.^.^.^.^.^.^.^.^.^.^.^.^.^.^.^.^.^.^.^.^.^.^.^.^.^.^.^.^.^.^.^.^.^.^.^.^.^.^.^.^.^.^.^.^.^.",
"^.^.^.^.^.^.^.^.^.^.^.^.^.^.^.^.^.^.^.^.^.^.^.^.^.^.^.^.^.^.^.^.^.^.^.^.^.^.^.^.^.^.^.^.^.^.^.^.^.^.^.^.^.^.^.^.^.^.^.^.^.^.^.^.",
"^.^.^.^.^.^.^.^.^.^.^.^.^.^.^.^.^.^.^.^.^.^.^.^.^.^.^.^.^.^.^.^.^.^.4.I.J.J.J.E.^.^.^.^.^.^.^.^.^.^.^.^.^.^.^.^.^.^.^.^.^.^.^.^.",
"^.^.^.^.^.^.^.^.^.^.^.^.^.^.^.^.^.^.^.^.^.^.^.^.^.^.^.^.^.^.^.^.^.^.h.v.x.c.b.=.^.^.^.^.^.^.^.^.^.^.^.^.^.^.^.^.^.^.^.^.^.^.^.^.",
"^.^.^.^.^.^.^.^.^.^.^.^.^.^.^.^.^.^.^.^.^.^.^.^.^.^.^.^.^.^.^.^.^.Q v.h.h.c.5.^.^.^.^.^.^.^.^.^.^.^.^.^.^.^.^.^.^.^.^.^.^.^.^.^.",
"^.^.^.^.^.^.^.^.^.^.^.^.^.^.^.^.^.^.^.^.^.^.^.^.^.^.^.^.^.^.^.^.j l.x.h.k.x.^.^.^.^.^.^.^.^.^.^.^.^.^.^.^.^.^.^.^.^.^.^.^.^.^.^.",
"^.^.^.^.^.^.^.^.^.^.^.^.^.^.^.^.^.^.^.^.^.^.G.H.H.D.H.^.^.^.^.^.o.v.h.d.x.-.^.^.^.^.^.^.^.^.^.^.^.^.^.^.^.^.^.^.^.^.^.^.^.^.^.^.",
"^.^.^.^.^.^.^.^.^.^.^.^.^.^.^.^.^.^.^.^.^.Q c.j.h.V.=.^.^.^.^.z c.h.q.k.h.^.^.^.^.^.^.^.^.^.^.^.^.^.^.^.^.^.^.^.^.^.^.^.^.^.^.^.",
"^.^.^.^.^.^.^.^.^.^.^.^.^.^.^.^.^.^.^.^.k l.h.8.j.d.^.^.^.^.^.;.c.0.h.x.X.^.^.^.^.^.^.^.^.^.^.^.^.^.^.^.^.^.^.^.^.^.^.^.^.^.^.^.",
"^.^.^.^.^.^.^.^.^.^.^.^.^.^.^.^.^.^.^.^.o.x.8.0.j.X.^.^.^.^.S c.0.8.j.8.^.^.^.^.^.^.^.^.^.^.^.^.^.^.^.^.^.^.^.^.^.^.^.^.^.^.^.^.",
"^.^.^.^.^.^.^.^.^.^.^.^.^.^.^.^.^.^.^.z x.0.8.j.8.^.^.^.^.^.8.j.8.q.j.^.^.^.^.^.^.^.^.^.^.^.^.^.^.^.^.^.^.^.^.^.^.^.^.^.^.^.^.^.",
"^.^.^.^.^.^.^.^.S H.S.A.F.P.^.^.^.^.^.6.j.6.7.j.^.^.^.^.^.D k.8.8.j.o.^.^.^.^.^.^.^.^.^.^.^.^.^.^.^.^.^.^.^.^.^.^.^.^.^.^.^.^.^.",
"^.^.^.^.^.^.^.^.$.q.7.7.q.P ^.^.^.^.S k.7.8.q.&.^.^.^.^.w d.q.6.7.q.^.^.^.^.^.^.^.^.^.^.^.^.^.^.^.^.^.^.^.^.^.^.^.^.^.^.^.^.^.^.",
"^.^.^.^.^.^.^.Z j.7.;.q.&.^.^.^.^.6 6.q.6.7.9.^.^.^.^.^.Q j.7.7.p. .^.^.^.^.^.^.^.^.^.^.^.^.^.^.^.^.^.^.^.^.^.^.^.^.^.^.^.^.^.^.",
"^.^.^.^.^.^.^.;.q.*.7.7.^.^.^.^.^.I j.2.*.q. .^.^.^.^.r 9.7.&.7.6.^.^.^.^.^.^.^.^.^.^.^.^.^.^.^.^.^.^.^.^.^.^.^.^.^.^.^.^.^.^.^.",
"^.^.^.^.^.^.D j.2.*.7. .^.^.^.^.k z.m.2.7.&.^.^.^.^.^.O.q.*.2.9.I ^.^.^.^.^.^.^.^.^.W.^.^.^.^.^.Z.K.^.^.K.^.^.^.^.^.^.^.^.^.^.^.",
"^.^.^.^.^.6 7.3.$.7.7.^.^.^.^.^.% : l f.M.I ^.^.^.^.k 9.3.$.7.+.^.^.^.^.^.I B.p.i.B.%.^.^.^.^.% h > & E 9.^.^.^.^.^.$.B.p.p.a.O.",
"^.^.^.^.^.I 7.$.9.7.C ^.^.^.^.^.^.^.^.X 0 ^.^.^.^.^.$.7.$.*.7.^.^.^.^.^.w :.$.^ $.^ ^.^.^.^.^.^.^.^.^.^.^.^.^.^.^.x 6.( ^ 3.I ^.",
"^.^.^.^.w 7.t.q.B @ ^.^.^.^.^.9.T.R.^.^.^.^.^.^.^.x 9.$.$.e.Q ^.^.^.^.^.^ 7.%.2.9.V ^.^.^.^.I Z.M.L.W.^.^.^.^.^.r 9.2.$.2.3.^.^.",
"^.^.^.^.^ m.$.4 ^.^.^.^.^.^.l *.! ( s.R.^.^.^.^.4 f.3.( 3.%.^.^.^.^.^.r 7.%.7.$.u ^.^.^.^.^.( 3./ ^ } *.^.^.^.^.X O.f.%.e.I ^.^.",
"^.^.^.x n.x ^.^.^.^.^.^.^.^.+.%.( ^ I ^.^.^.^.^.. 7 f.3.e.D ^.^.^.^.^./ t.7.x @ ^.^.^.^.^.x 3.^ ( e.C ^.^.^.^.^.^.^., f.*.^.^.^.",
"^.^.4 U e ^.^.O.C.^.^.^.^.B 3./ / e.D ^.^.^.^.^.^.^.  ! @.^.^.^.^.^.F n.! 2 ^.^.^.^.^.^.2 +.%.^ ( / ^.^.^.^.^.r.~.^.^.  a ^.^.^.",
"^.^.1 ^.^.^.*.! ^.^.^.^.2 +.( ! ( / ^.^.^.^.^.W !.^.^.  4 ^.^.^.^.6 U h ^.^.^.^.^.^.^.^.F *./ ~ e.B ^.^.^.^.e T w.Q.^.^.^.^.^.^.",
"^.^.^.^.U >.%.^.^.^.^.^.F %.! ~ %.x ^.^.^.^.t T K U.Q.^.^.^.^.^.^.: ^.^.^.O./ ^.^.^.^.4 +.~ ~ ( ! ^.^.^.^.^.! %.V H U.^.^.^.^.^.",
"^.^.O.%.,.e.x ^.^.^.^.e e.%.( ,.U ^.^.^.^.^./ e.! C 1.u.^.^.^.^.^.^.^.T >.( ^.^.^.^.^.K %.~ ~ ( a ^.^.^.^.e %.~ ~ / u ^.^.^.^.^.",
"7 / W H K F ^.^.^.^.= A ~ F F W ^.^.^.^.^.t ! H K ~ u ^.^.^.^.^.#.t.{ { } i ^.^.^.^.e %.~ L { K ^.^.^.^.^.! / W ~ ~ ^.^.^.^.^.^.",
"# ^.^.^.^.^.^.^.^.^.^.^.^.^.^.^.^.^.^.^.^.# ^.^.^.^.^.^.^.^.^.3 { W L ~ K ^.^.^.^.^.K / L ~ ~ ^.^.^.^.^.p ( L L } B ^.^.^.^.^.^.",
"^.^.^.^.^.^.^.^.^.^.^.^.^.^.^.^.^.^.^.^.^.^.^.^.^.^.^.^.^.^.^.K ~ L W ~ ^.^.^.^.^.t / L L ~ B ^.^.^.^., ~ L L W L ^.^.^.^.^.^.^.",
"^.^.^.^.^.^.^.^.^.^.^.^.^.^.^.^.^.^.^.^.^.^.^.^.^.^.^.^.^.^.e ] J J ] b ^.^.^.^.= Y W J W L ^.^.^.^.^.b ] L L ] p ^.^.^.^.^.^.^.",
"^.^.^.^.^.^.^.^.^.^.^.^.^.^.^.^.^.^.^.^.^.^.^.^.^.^.^.^.^.* L L J L L ^.^.^.^.^.p ] J J ' p ^.^.^.^.e >.] ~ [ F ^.^.^.^.^.^.^.^.",
"^.^.^.^.^.^.^.^.^.^.^.^.^.^.^.^.^.^.^.^.^.^.^.^.^.^.^.^.^.t ] G G W p ^.^.^.^.; ~ J G _ G ^.^.^.^.^.< 3 < < 3 ^.^.^.^.^.^.^.^.^.",
"^.^.^.^.^.^.^.^.^.^.^.^.^.^.^.^.^.^.^.^.^.^.^.^.^.^.^.^.; L J m ) G ^.^.^.^.^.d W m G L 8 ^.^.^.^.^.^.^.^.^.^.^.^.^.^.^.^.^.^.^.",
"^.^.^.^.^.^.^.^.^.^.^.^.^.^.^.^.^.^.^.^.^.^.^.^.^.^.^.^.d ) m m ' 9 ^.^.^.^.3 _ m m ) c ^.^.^.^.^.^.^.^.^.^.^.^.^.^.^.^.^.^.^.^.",
"^.^.^.^.^.^.^.^.^.^.^.^.^.^.^.^.^.^.^.^.^.^.^.^.^.^.^.; ) m n N c ^.^.^.^.^.n J n m J ^.^.^.^.^.^.^.^.^.^.^.^.^.^.^.^.^.^.^.^.^.",
"^.^.^.^.^.^.^.^.^.^.^.^.^.^.^.^.^.^.^.^.^.^.^.^.^.^.^.c ) v n ) ^.^.^.^.^.q ` J ) ' q ^.^.^.^.^.^.^.^.^.^.^.^.^.^.^.^.^.^.^.^.^.",
"^.^.^.^.^.^.^.^.^.^.^.^.^.^.^.^.^.^.^.^.^.^.^.^.^.^.3 ) v v N y ^.^.^.^.o - - $ $ - ^.^.^.^.^.^.^.^.^.^.^.^.^.^.^.^.^.^.^.^.^.^.",
"^.^.^.^.^.^.^.^.^.^.^.^.^.^.^.^.^.^.^.^.^.^.^.^.^.+ n n f n n ^.^.^.^.^.^.^.^.^.^.^.^.^.^.^.^.^.^.^.^.^.^.^.^.^.^.^.^.^.^.^.^.^.",
"^.^.^.^.^.^.^.^.^.^.^.^.^.^.^.^.^.^.^.^.^.^.^.^.^.9 ) f M N 5 ^.^.^.^.^.^.^.^.^.^.^.^.^.^.^.^.^.^.^.^.^.^.^.^.^.^.^.^.^.^.^.^.^.",
"^.^.^.^.^.^.^.^.^.^.^.^.^.^.^.^.^.^.^.^.^.^.^.^.= ) M v M f ^.^.^.^.^.^.^.^.^.^.^.^.^.^.^.^.^.^.^.^.^.^.^.^.^.^.^.^.^.^.^.^.^.^.",
"^.^.^.^.^.^.^.^.^.^.^.^.^.^.^.^.^.^.^.^.^.^.^.^.# $ + + # * ^.^.^.^.^.^.^.^.^.^.^.^.^.^.^.^.^.^.^.^.^.^.^.^.^.^.^.^.^.^.^.^.^.^.",
"^.^.^.^.^.^.^.^.^.^.^.^.^.^.^.^.^.^.^.^.^.^.^.^.^.^.^.^.^.^.^.^.^.^.^.^.^.^.^.^.^.^.^.^.^.^.^.^.^.^.^.^.^.^.^.^.^.^.^.^.^.^.^.^.",
"^.^.^.^.^.^.^.^.^.^.^.^.^.^.^.^.^.^.^.^.^.^.^.^.^.^.^.^.^.^.^.^.^.^.^.^.^.^.^.^.^.^.^.^.^.^.^.^.^.^.^.^.^.^.^.^.^.^.^.^.^.^.^.^.",
"^.^.^.^.^.^.^.^.^.^.^.^.^.^.^.^.^.^.^.^.^.^.^.^.^.^.^.^.^.^.^.^.^.^.^.^.^.^.^.^.^.^.^.^.^.^.^.^.^.^.^.^.^.^.^.^.^.^.^.^.^.^.^.^.",
"^.^.^.^.^.^.^.^.^.^.^.^.^.^.^.^.^.^.^.^.^.^.^.^.^.^.^.^.^.^.^.^.^.^.^.^.^.^.^.^.^.^.^.^.^.^.^.^.^.^.^.^.^.^.^.^.^.^.^.^.^.^.^.^.",
"^.^.^.^.^.^.^.^.^.^.^.^.^.^.^.^.^.^.^.^.^.^.^.^.^.^.^.^.^.^.^.^.^.^.^.^.^.^.^.^.^.^.^.^.^.^.^.^.^.^.^.^.^.^.^.^.^.^.^.^.^.^.^.^.",
"^.^.^.^.^.^.^.^.^.^.^.^.^.^.^.^.^.^.^.^.^.^.^.^.^.^.^.^.^.^.^.^.^.^.^.^.^.^.^.^.^.^.^.^.^.^.^.^.^.^.^.^.^.^.^.^.^.^.^.^.^.^.^.^.",
"^.^.^.^.^.^.^.^.^.^.^.^.^.^.^.^.^.^.^.^.^.^.^.^.^.^.^.^.^.^.^.^.^.^.^.^.^.^.^.^.^.^.^.^.^.^.^.^.^.^.^.^.^.^.^.^.^.^.^.^.^.^.^.^.",
"^.^.^.^.^.^.^.^.^.^.^.^.^.^.^.^.^.^.^.^.^.^.^.^.^.^.^.^.^.^.^.^.^.^.^.^.^.^.^.^.^.^.^.^.^.^.^.^.^.^.^.^.^.^.^.^.^.^.^.^.^.^.^.^.",
"^.^.^.^.^.^.^.^.^.^.^.^.^.^.^.^.^.^.^.^.^.^.^.^.^.^.^.^.^.^.^.^.^.^.^.^.^.^.^.^.^.^.^.^.^.^.^.^.^.^.^.^.^.^.^.^.^.^.^.^.^.^.^.^.",
"^.^.^.^.^.^.^.^.^.^.^.^.^.^.^.^.^.^.^.^.^.^.^.^.^.^.^.^.^.^.^.^.^.^.^.^.^.^.^.^.^.^.^.^.^.^.^.^.^.^.^.^.^.^.^.^.^.^.^.^.^.^.^.^.",
"^.^.^.^.^.^.^.^.^.^.^.^.^.^.^.^.^.^.^.^.^.^.^.^.^.^.^.^.^.^.^.^.^.^.^.^.^.^.^.^.^.^.^.^.^.^.^.^.^.^.^.^.^.^.^.^.^.^.^.^.^.^.^.^.",
"^.^.^.^.^.^.^.^.^.^.^.^.^.^.^.^.^.^.^.^.^.^.^.^.^.^.^.^.^.^.^.^.^.^.^.^.^.^.^.^.^.^.^.^.^.^.^.^.^.^.^.^.^.^.^.^.^.^.^.^.^.^.^.^.",
"^.^.^.^.^.^.^.^.^.^.^.^.^.^.^.^.^.^.^.^.^.^.^.^.^.^.^.^.^.^.^.^.^.^.^.^.^.^.^.^.^.^.^.^.^.^.^.^.^.^.^.^.^.^.^.^.^.^.^.^.^.^.^.^."
};
