<?xml version="1.0" encoding="UTF-8"?>
<!DOCTYPE svg PUBLIC "-//W3C//DTD SVG 1.1//EN" "http://www.w3.org/Graphics/SVG/1.1/DTD/svg11.dtd">
<svg xmlns="http://www.w3.org/2000/svg" version="1.1" width="512px" height="512px" style="shape-rendering:geometricPrecision; text-rendering:geometricPrecision; image-rendering:optimizeQuality; fill-rule:evenodd; clip-rule:evenodd" xmlns:xlink="http://www.w3.org/1999/xlink">
<g><path style="opacity:0.963" fill="#fefffe" d="M 249.5,-0.5 C 253.5,-0.5 257.5,-0.5 261.5,-0.5C 267.165,2.13007 270.998,6.4634 273,12.5C 273.667,32.8333 273.667,53.1667 273,73.5C 270.587,82.4102 264.754,87.0769 255.5,87.5C 246.678,87.1737 240.844,82.8404 238,74.5C 237.333,53.8333 237.333,33.1667 238,12.5C 240.002,6.4634 243.835,2.13007 249.5,-0.5 Z"/></g>
<g><path style="opacity:0.962" fill="#fefffe" d="M 80.5,69.5 C 86.1052,68.9081 91.4386,69.7415 96.5,72C 110.333,85.8333 124.167,99.6667 138,113.5C 143.292,123.171 141.792,131.671 133.5,139C 126.833,142.333 120.167,142.333 113.5,139C 99.3333,124.833 85.1667,110.667 71,96.5C 65.9707,84.4126 69.1374,75.4126 80.5,69.5 Z"/></g>
<g><path style="opacity:0.962" fill="#fefffe" d="M 418.5,69.5 C 438.516,68.3445 445.683,77.3445 440,96.5C 425.833,110.667 411.667,124.833 397.5,139C 382.244,145.039 372.911,140.039 369.5,124C 369.975,120.263 371.142,116.763 373,113.5C 387.758,98.2391 402.925,83.5724 418.5,69.5 Z"/></g>
<g><path style="opacity:0.967" fill="#fefffe" d="M 242.5,126.5 C 286.395,123.846 323.228,138.512 353,170.5C 383,206.852 391.667,247.852 379,293.5C 355.284,356.289 309.784,386.455 242.5,384C 190.105,376.565 153.938,348.398 134,299.5C 117.313,244.745 129.48,197.578 170.5,158C 191.346,140.22 215.346,129.72 242.5,126.5 Z M 246.5,162.5 C 294.077,161.186 326.577,182.52 344,226.5C 354.631,265.821 345.131,299.321 315.5,327C 281.765,352.08 246.098,355.08 208.5,336C 175.992,315.153 160.826,285.32 163,246.5C 168.094,207.136 189.261,180.636 226.5,167C 233.259,165.285 239.925,163.785 246.5,162.5 Z"/></g>
<g><path style="opacity:0.963" fill="#fefffe" d="M -0.5,261.5 C -0.5,257.5 -0.5,253.5 -0.5,249.5C 2.13007,243.835 6.4634,240.002 12.5,238C 32.8333,237.333 53.1667,237.333 73.5,238C 82.4102,240.413 87.0769,246.246 87.5,255.5C 87.0769,264.754 82.4102,270.587 73.5,273C 53.1667,273.667 32.8333,273.667 12.5,273C 6.05784,271.383 1.72451,267.55 -0.5,261.5 Z"/></g>
<g><path style="opacity:0.963" fill="#fefffe" d="M 511.5,249.5 C 511.5,253.5 511.5,257.5 511.5,261.5C 508.87,267.165 504.537,270.998 498.5,273C 478.167,273.667 457.833,273.667 437.5,273C 428.59,270.587 423.923,264.754 423.5,255.5C 423.826,246.678 428.16,240.844 436.5,238C 457.167,237.333 477.833,237.333 498.5,238C 504.537,240.002 508.87,243.835 511.5,249.5 Z"/></g>
<g><path style="opacity:0.962" fill="#fefffe" d="M 117.5,369.5 C 131.29,367.463 139.29,373.296 141.5,387C 141.025,390.737 139.858,394.237 138,397.5C 124.167,411.333 110.333,425.167 96.5,439C 87.4626,443.213 79.2959,442.046 72,435.5C 67.832,428.664 67.4987,421.664 71,414.5C 86.0914,398.906 101.591,383.906 117.5,369.5 Z"/></g>
<g><path style="opacity:0.95" fill="#fefffe" d="M 381.5,369.5 C 387.072,368.99 392.405,369.823 397.5,372C 411,385.5 424.5,399 438,412.5C 443.538,422.257 442.372,431.09 434.5,439C 428.309,441.865 421.976,442.199 415.5,440C 401.029,426.529 386.862,412.696 373,398.5C 366.115,385.765 368.948,376.098 381.5,369.5 Z"/></g>
<g><path style="opacity:0.963" fill="#fefffe" d="M 261.5,511.5 C 257.5,511.5 253.5,511.5 249.5,511.5C 243.835,508.87 240.002,504.537 238,498.5C 237.333,477.833 237.333,457.167 238,436.5C 244.255,423.748 253.755,420.582 266.5,427C 269.531,429.559 271.698,432.726 273,436.5C 273.667,457.167 273.667,477.833 273,498.5C 270.998,504.537 267.165,508.87 261.5,511.5 Z"/></g>
</svg>
