<?xml version="1.0" encoding="UTF-8"?>
<!DOCTYPE svg PUBLIC "-//W3C//DTD SVG 1.1//EN" "http://www.w3.org/Graphics/SVG/1.1/DTD/svg11.dtd">
<svg xmlns="http://www.w3.org/2000/svg" version="1.1" width="512px" height="512px" style="shape-rendering:geometricPrecision; text-rendering:geometricPrecision; image-rendering:optimizeQuality; fill-rule:evenodd; clip-rule:evenodd" xmlns:xlink="http://www.w3.org/1999/xlink">
<g><path style="opacity:0.969" fill="#858685" d="M 175.5,-0.5 C 181.5,-0.5 187.5,-0.5 193.5,-0.5C 211.142,5.60697 225.642,16.2736 237,31.5C 242.747,39.3262 248.247,47.3262 253.5,55.5C 263.031,39.9645 274.364,25.7979 287.5,13C 295.034,6.90174 303.367,2.40174 312.5,-0.5C 318.5,-0.5 324.5,-0.5 330.5,-0.5C 355.725,9.27694 366.558,27.6103 363,54.5C 358.34,67.8376 350.506,79.0043 339.5,88C 318.621,104.938 294.955,116.271 268.5,122C 199.834,122.5 131.167,122.667 62.5,122.5C 62.5,153.5 62.5,184.5 62.5,215.5C 191.167,215.5 319.833,215.5 448.5,215.5C 448.5,184.5 448.5,153.5 448.5,122.5C 414.498,122.667 380.498,122.5 346.5,122C 335.844,116.152 333.677,107.985 340,97.5C 342.469,95.3485 345.302,93.8485 348.5,93C 383.167,92.3333 417.833,92.3333 452.5,93C 467.46,95.6265 475.96,104.46 478,119.5C 478.667,152.833 478.667,186.167 478,219.5C 474.408,237.262 463.574,245.929 445.5,245.5C 445.667,327.167 445.5,408.834 445,490.5C 441.315,500.684 434.481,507.684 424.5,511.5C 311.833,511.5 199.167,511.5 86.5,511.5C 76.5187,507.684 69.6854,500.684 66,490.5C 65.5,408.834 65.3333,327.167 65.5,245.5C 49.569,246.619 39.069,239.619 34,224.5C 32.8667,206.208 32.3667,187.875 32.5,169.5C 32.6667,152.833 32.8333,136.167 33,119.5C 35.04,104.46 43.54,95.6265 58.5,93C 96.5,92.6667 134.5,92.3333 172.5,92C 160.369,83.2087 151.203,72.0421 145,58.5C 138.81,30.2106 148.976,10.544 175.5,-0.5 Z M 181.5,29.5 C 184.187,29.3359 186.854,29.5026 189.5,30C 195.272,32.6338 200.439,36.1338 205,40.5C 218.134,55.2556 228.634,71.7556 236.5,90C 214.99,84.3278 196.157,73.8278 180,58.5C 175.958,54.2855 173.458,49.2855 172.5,43.5C 172.692,41.4233 173.192,39.4233 174,37.5C 176.028,34.3078 178.528,31.6411 181.5,29.5 Z M 317.5,29.5 C 327.283,28.9957 332.95,33.6623 334.5,43.5C 333.565,47.3736 332.065,51.0403 330,54.5C 313.668,71.4271 294.168,83.4271 271.5,90.5C 278.388,70.7039 289.388,53.2039 304.5,38C 308.557,34.6452 312.89,31.8118 317.5,29.5 Z M 95.5,245.5 C 130.167,245.5 164.833,245.5 199.5,245.5C 199.333,314.834 199.5,384.167 200,453.5C 202.194,460.269 206.861,463.936 214,464.5C 221.709,463.82 226.709,459.82 229,452.5C 229.5,383.501 229.667,314.501 229.5,245.5C 246.833,245.5 264.167,245.5 281.5,245.5C 281.5,324.5 281.5,403.5 281.5,482.5C 219.5,482.5 157.5,482.5 95.5,482.5C 95.5,403.5 95.5,324.5 95.5,245.5 Z M 311.5,245.5 C 346.167,245.5 380.833,245.5 415.5,245.5C 415.5,324.5 415.5,403.5 415.5,482.5C 380.833,482.5 346.167,482.5 311.5,482.5C 311.5,403.5 311.5,324.5 311.5,245.5 Z"/></g>
</svg>
