<?xml version="1.0" encoding="UTF-8"?>
<!DOCTYPE svg PUBLIC "-//W3C//DTD SVG 1.1//EN" "http://www.w3.org/Graphics/SVG/1.1/DTD/svg11.dtd">
<svg xmlns="http://www.w3.org/2000/svg" version="1.1" width="512px" height="512px" style="shape-rendering:geometricPrecision; text-rendering:geometricPrecision; image-rendering:optimizeQuality; fill-rule:evenodd; clip-rule:evenodd" xmlns:xlink="http://www.w3.org/1999/xlink">
<g><path style="opacity:0.966" fill="#fefffe" d="M 251.5,-0.5 C 252.5,-0.5 253.5,-0.5 254.5,-0.5C 278.635,22.7999 302.968,45.9666 327.5,69C 328.451,69.7175 328.617,70.5509 328,71.5C 304.541,96.1296 280.875,120.463 257,144.5C 249.178,137.346 241.345,130.18 233.5,123C 243.5,112.333 253.5,101.667 263.5,91C 204.753,89.4584 157.587,111.958 122,158.5C 83.5648,216.635 80.5648,276.635 113,338.5C 126.651,360.826 144.151,379.493 165.5,394.5C 157.506,403.827 149.173,412.827 140.5,421.5C 88.7035,384.276 59.8702,333.61 54,269.5C 51.053,195.244 78.8863,135.744 137.5,91C 175.238,64.3962 217.238,51.7295 263.5,53C 252.349,43.0156 241.682,32.5156 231.5,21.5C 238.558,14.4458 245.225,7.11248 251.5,-0.5 Z"/></g>
<g><path style="opacity:0.965" fill="#fefffe" d="M 259.5,511.5 C 258.5,511.5 257.5,511.5 256.5,511.5C 232.365,488.2 208.032,465.033 183.5,442C 182.549,441.282 182.383,440.449 183,439.5C 206.459,414.87 230.125,390.537 254,366.5C 261.822,373.654 269.655,380.82 277.5,388C 267.5,398.667 257.5,409.333 247.5,420C 306.235,421.548 353.402,399.048 389,352.5C 427.435,294.365 430.435,234.365 398,172.5C 384.349,150.174 366.849,131.507 345.5,116.5C 353.494,107.173 361.827,98.1733 370.5,89.5C 422.329,126.798 451.162,177.464 457,241.5C 459.947,315.756 432.114,375.256 373.5,420C 335.73,446.61 293.73,459.277 247.5,458C 258.651,467.984 269.318,478.484 279.5,489.5C 272.442,496.554 265.775,503.888 259.5,511.5 Z"/></g>
</svg>
