<?xml version="1.0" encoding="UTF-8"?>
<!DOCTYPE svg PUBLIC "-//W3C//DTD SVG 1.1//EN" "http://www.w3.org/Graphics/SVG/1.1/DTD/svg11.dtd">
<svg xmlns="http://www.w3.org/2000/svg" version="1.1" width="512px" height="512px" style="shape-rendering:geometricPrecision; text-rendering:geometricPrecision; image-rendering:optimizeQuality; fill-rule:evenodd; clip-rule:evenodd" xmlns:xlink="http://www.w3.org/1999/xlink">
<g><path style="opacity:0.971" fill="#fefffe" d="M 240.5,64.5 C 264.94,63.015 288.606,66.515 311.5,75C 357.878,96.9191 378.378,133.419 373,184.5C 371.198,193.905 368.198,202.905 364,211.5C 358.065,221.035 351.398,230.035 344,238.5C 326,255.833 308,273.167 290,290.5C 285.279,297.276 281.612,304.609 279,312.5C 276.76,323.42 275.094,334.42 274,345.5C 271.596,350.234 267.763,353.067 262.5,354C 255.5,354.667 248.5,354.667 241.5,354C 231.673,351.034 227.673,344.368 229.5,334C 229.494,307.01 237.994,283.176 255,262.5C 274,244.167 293,225.833 312,207.5C 329.253,185.366 330.92,162.033 317,137.5C 294.358,106.371 264.525,96.538 227.5,108C 213.211,113.885 202.045,123.385 194,136.5C 189.172,145.824 185.172,155.49 182,165.5C 172.611,177.133 161.111,179.633 147.5,173C 140.311,168.126 136.644,161.293 136.5,152.5C 143.807,115.404 164.807,89.2377 199.5,74C 212.909,69.0892 226.576,65.9225 240.5,64.5 Z"/></g>
<g><path style="opacity:0.956" fill="#fefffe" d="M 246.5,393.5 C 266.252,391.26 277.586,399.927 280.5,419.5C 276.537,441.823 263.537,449.99 241.5,444C 226.378,434.017 222.878,420.85 231,404.5C 235.162,399.19 240.329,395.524 246.5,393.5 Z"/></g>
</svg>
