<?xml version="1.0" encoding="UTF-8"?>
<!DOCTYPE svg PUBLIC "-//W3C//DTD SVG 1.1//EN" "http://www.w3.org/Graphics/SVG/1.1/DTD/svg11.dtd">
<svg xmlns="http://www.w3.org/2000/svg" version="1.1" width="512px" height="512px" style="shape-rendering:geometricPrecision; text-rendering:geometricPrecision; image-rendering:optimizeQuality; fill-rule:evenodd; clip-rule:evenodd" xmlns:xlink="http://www.w3.org/1999/xlink">
<g><path style="opacity:0.949" fill="#fefffe" d="M 250.5,-0.5 C 253.833,-0.5 257.167,-0.5 260.5,-0.5C 262.134,0.971672 263.634,2.63834 265,4.5C 265.333,28.5 265.667,52.5 266,76.5C 280.167,63 294.333,49.5 308.5,36C 317.694,32.4296 323.361,35.4296 325.5,45C 325.091,47.3207 324.257,49.4874 323,51.5C 304,69.8333 285,88.1667 266,106.5C 265.333,114.167 265.333,121.833 266,129.5C 280.167,116 294.333,102.5 308.5,89C 317.718,85.4413 323.385,88.4413 325.5,98C 325.204,99.8882 324.704,101.722 324,103.5C 304.667,122.167 285.333,140.833 266,159.5C 265.5,169.828 265.334,180.161 265.5,190.5C 270.221,191.412 274.887,192.246 279.5,193C 289.126,176.916 298.626,160.749 308,144.5C 314.303,140.02 319.97,140.687 325,146.5C 326.457,149.366 326.79,152.366 326,155.5C 316.5,171.833 307,188.167 297.5,204.5C 300.833,207.167 303.833,210.167 306.5,213.5C 314.833,208.667 323.167,203.833 331.5,199C 332.701,198.097 333.535,196.931 334,195.5C 339.873,170.47 345.873,145.47 352,120.5C 356.599,113.938 362.432,112.771 369.5,117C 371.089,119.431 372.089,122.097 372.5,125C 368.139,144.109 363.473,163.109 358.5,182C 365.179,178.893 371.846,175.393 378.5,171.5C 385.304,145.616 391.804,119.616 398,93.5C 401.821,87.6072 406.988,86.1072 413.5,89C 416.202,91.4027 417.869,94.4027 418.5,98C 413.739,117.535 409.239,137.035 405,156.5C 425.511,143.328 446.677,131.328 468.5,120.5C 476.714,122.254 479.88,127.254 478,135.5C 477.215,137.286 476.049,138.786 474.5,140C 455.001,151.248 435.668,162.748 416.5,174.5C 435.546,180.178 454.546,186.012 473.5,192C 479.048,198.292 478.715,204.292 472.5,210C 468.878,211.709 465.211,211.709 461.5,210C 437.878,203.011 414.212,196.178 390.5,189.5C 383.708,193.064 377.041,196.898 370.5,201C 389.801,206.988 409.134,212.988 428.5,219C 431.36,222.681 432.193,226.848 431,231.5C 428.081,237.025 423.581,238.858 417.5,237C 393.353,230.088 369.187,223.255 345,216.5C 335.738,220.966 326.738,225.966 318,231.5C 318.754,236.113 319.588,240.779 320.5,245.5C 340.169,245.333 359.836,245.5 379.5,246C 385.109,249.277 386.942,254.11 385,260.5C 383.125,263.187 380.625,265.021 377.5,266C 358.491,266.167 339.491,266.667 320.5,267.5C 319.325,271.5 318.491,275.5 318,279.5C 326.084,284.459 334.251,289.293 342.5,294C 367.333,288.29 392,281.623 416.5,274C 428.054,272.22 432.887,277.054 431,288.5C 430.535,289.931 429.701,291.097 428.5,292C 409.66,298.128 390.66,303.794 371.5,309C 370.167,309.667 370.167,310.333 371.5,311C 377.331,314.081 382.998,317.415 388.5,321C 412.962,315.132 437.296,308.466 461.5,301C 472.942,298.447 478.109,302.947 477,314.5C 476.215,316.286 475.049,317.786 473.5,319C 454.558,324.986 435.558,330.819 416.5,336.5C 435.668,348.252 455.001,359.752 474.5,371C 480.267,377.727 479.601,383.727 472.5,389C 469.5,389.667 466.5,389.667 463.5,389C 445.669,378.919 428.002,368.586 410.5,358C 408.598,356.699 406.598,356.032 404.5,356C 409.473,374.893 414.14,393.893 418.5,413C 415.64,422.764 409.64,425.43 400.5,421C 399.299,420.097 398.465,418.931 398,417.5C 391.804,391.384 385.304,365.384 378.5,339.5C 371.846,335.607 365.179,332.107 358.5,329C 363.473,347.891 368.139,366.891 372.5,386C 370.385,395.559 364.718,398.559 355.5,395C 353.951,393.786 352.785,392.286 352,390.5C 345.873,365.53 339.873,340.53 334,315.5C 333.535,314.069 332.701,312.903 331.5,312C 323.167,307.167 314.833,302.333 306.5,297.5C 303.833,300.833 300.833,303.833 297.5,306.5C 307,322.833 316.5,339.167 326,355.5C 327.545,363.765 324.211,368.432 316,369.5C 313.019,369.343 310.352,368.343 308,366.5C 298.626,350.251 289.126,334.084 279.5,318C 274.887,318.754 270.221,319.588 265.5,320.5C 265.334,330.839 265.5,341.172 266,351.5C 285.333,370.167 304.667,388.833 324,407.5C 327.164,416.361 324.164,421.695 315,423.5C 312.747,423.369 310.581,422.869 308.5,422C 294.333,408.5 280.167,395 266,381.5C 265.333,389.167 265.333,396.833 266,404.5C 285.333,423.167 304.667,441.833 324,460.5C 327.224,469.68 324.057,475.013 314.5,476.5C 312.366,476.485 310.366,475.985 308.5,475C 294.333,461.5 280.167,448 266,434.5C 265.667,458.5 265.333,482.5 265,506.5C 263.634,508.362 262.134,510.028 260.5,511.5C 257.167,511.5 253.833,511.5 250.5,511.5C 248.866,510.028 247.366,508.362 246,506.5C 245.667,482.5 245.333,458.5 245,434.5C 230.833,448 216.667,461.5 202.5,475C 193.306,478.57 187.639,475.57 185.5,466C 185.909,463.679 186.743,461.513 188,459.5C 207,441.167 226,422.833 245,404.5C 245.667,396.833 245.667,389.167 245,381.5C 230.833,395 216.667,408.5 202.5,422C 193.282,425.559 187.615,422.559 185.5,413C 185.796,411.112 186.296,409.278 187,407.5C 206.333,388.833 225.667,370.167 245,351.5C 245.5,341.172 245.666,330.839 245.5,320.5C 240.779,319.588 236.113,318.754 231.5,318C 221.874,334.084 212.374,350.251 203,366.5C 196.697,370.98 191.03,370.313 186,364.5C 184.543,361.634 184.21,358.634 185,355.5C 194.5,339.167 204,322.833 213.5,306.5C 210.167,303.833 207.167,300.833 204.5,297.5C 196.167,302.333 187.833,307.167 179.5,312C 178.299,312.903 177.465,314.069 177,315.5C 171.127,340.53 165.127,365.53 159,390.5C 154.401,397.062 148.568,398.229 141.5,394C 139.911,391.569 138.911,388.903 138.5,386C 143.397,366.92 147.564,347.753 151,328.5C 145.081,332.544 138.914,336.211 132.5,339.5C 125.696,365.384 119.196,391.384 113,417.5C 108.591,423.633 103.091,424.8 96.5,421C 94.4091,418.737 93.0758,416.07 92.5,413C 97.2605,393.465 101.761,373.965 106,354.5C 86.5823,366.126 67.0823,377.626 47.5,389C 35.1466,390.647 30.6466,385.481 34,373.5C 34.8333,372.667 35.6667,371.833 36.5,371C 56.0342,359.737 75.3675,348.237 94.5,336.5C 75.4536,330.822 56.4536,324.988 37.5,319C 31.9515,312.708 32.2849,306.708 38.5,301C 42.1667,300.333 45.8333,300.333 49.5,301C 73.1216,307.989 96.7883,314.822 120.5,321.5C 127.292,317.936 133.959,314.102 140.5,310C 121.21,304.016 101.877,298.016 82.5,292C 77.5249,286.146 77.8583,280.479 83.5,275C 87.0387,273.496 90.7054,273.163 94.5,274C 118.268,281.067 142.102,287.9 166,294.5C 175.262,290.034 184.262,285.034 193,279.5C 192.246,274.887 191.412,270.221 190.5,265.5C 170.831,265.667 151.164,265.5 131.5,265C 125.891,261.723 124.058,256.89 126,250.5C 127.875,247.813 130.375,245.979 133.5,245C 152.509,244.833 171.509,244.333 190.5,243.5C 191.675,239.5 192.509,235.5 193,231.5C 184.916,226.541 176.749,221.707 168.5,217C 143.667,222.71 119,229.377 94.5,237C 85.5556,239.204 80.2223,235.87 78.5,227C 79.0923,223.968 80.4256,221.302 82.5,219C 102.106,212.798 121.773,206.798 141.5,201C 135.003,197.586 128.67,193.919 122.5,190C 96.1593,196.333 69.9927,203.499 44,211.5C 35.524,210.012 32.1906,205.012 34,196.5C 34.7845,194.714 35.9512,193.214 37.5,192C 56.4536,186.012 75.4536,180.178 94.5,174.5C 75.3319,162.748 55.9985,151.248 36.5,140C 30.9515,133.708 31.2849,127.708 37.5,122C 40.8648,120.203 44.1982,120.203 47.5,122C 65.3309,132.081 82.9975,142.414 100.5,153C 102.402,154.301 104.402,154.968 106.5,155C 101.527,136.109 96.8608,117.109 92.5,98C 94.615,88.4413 100.282,85.4413 109.5,89C 111.049,90.214 112.215,91.714 113,93.5C 119.196,119.616 125.696,145.616 132.5,171.5C 138.584,175.293 144.751,178.959 151,182.5C 147.564,163.247 143.397,144.08 138.5,125C 139.881,116.465 144.881,113.132 153.5,115C 156,116.167 157.833,118 159,120.5C 165.127,145.47 171.127,170.47 177,195.5C 177.465,196.931 178.299,198.097 179.5,199C 187.833,203.833 196.167,208.667 204.5,213.5C 207.167,210.167 210.167,207.167 213.5,204.5C 204,188.167 194.5,171.833 185,155.5C 183.703,147.47 187.037,142.804 195,141.5C 197.981,141.657 200.648,142.657 203,144.5C 212.374,160.749 221.874,176.916 231.5,193C 236.113,192.246 240.779,191.412 245.5,190.5C 245.666,180.161 245.5,169.828 245,159.5C 225.667,140.833 206.333,122.167 187,103.5C 183.836,94.6385 186.836,89.3052 196,87.5C 198.253,87.6313 200.419,88.1313 202.5,89C 216.667,102.5 230.833,116 245,129.5C 245.667,121.833 245.667,114.167 245,106.5C 226,88.1667 207,69.8333 188,51.5C 183.507,42.1392 186.34,36.4726 196.5,34.5C 198.634,34.5153 200.634,35.0153 202.5,36C 216.667,49.5 230.833,63 245,76.5C 245.333,52.5 245.667,28.5 246,4.5C 247.366,2.63834 248.866,0.971672 250.5,-0.5 Z M 250.5,210.5 C 272.22,209.767 287.72,219.1 297,238.5C 304.905,264.844 296.739,284.344 272.5,297C 246.156,304.905 226.656,296.739 214,272.5C 206.599,249.369 212.766,230.869 232.5,217C 238.294,213.905 244.294,211.739 250.5,210.5 Z"/></g>
</svg>
