<?xml version="1.0" encoding="UTF-8"?>
<!DOCTYPE svg PUBLIC "-//W3C//DTD SVG 1.1//EN" "http://www.w3.org/Graphics/SVG/1.1/DTD/svg11.dtd">
<svg xmlns="http://www.w3.org/2000/svg" version="1.1" width="512px" height="512px" style="shape-rendering:geometricPrecision; text-rendering:geometricPrecision; image-rendering:optimizeQuality; fill-rule:evenodd; clip-rule:evenodd" xmlns:xlink="http://www.w3.org/1999/xlink">
<g><path style="opacity:0.967" fill="#fefffe" d="M 194.5,-0.5 C 195.5,-0.5 196.5,-0.5 197.5,-0.5C 209.921,2.11266 215.088,9.77932 213,22.5C 166.387,83.1165 156.387,149.45 183,221.5C 218.209,296.386 277.376,335.719 360.5,339.5C 395.674,339.163 428.341,329.996 458.5,312C 468.777,305.389 478.777,298.389 488.5,291C 498.518,287.908 506.185,290.741 511.5,299.5C 511.5,303.833 511.5,308.167 511.5,312.5C 481.153,418.343 412.153,483.177 304.5,507C 290.436,509.36 276.436,510.86 262.5,511.5C 259.167,511.5 255.833,511.5 252.5,511.5C 157.325,505.847 84.4916,462.847 34,382.5C 14.765,348.868 3.26496,312.868 -0.5,274.5C -0.5,259.167 -0.5,243.833 -0.5,228.5C 13.1878,125.271 67.5211,52.4373 162.5,10C 173.118,5.95993 183.785,2.45993 194.5,-0.5 Z M 154.5,53.5 C 125.109,123.965 128.275,192.965 164,260.5C 208.981,333.512 274.647,371.512 361,374.5C 396.209,373.986 429.709,366.486 461.5,352C 411.732,439.229 336.399,479.895 235.5,474C 158.998,463.524 101.498,425.024 63,358.5C 30.5347,295.829 26.868,231.496 52,165.5C 71.4006,120.435 101.901,84.9349 143.5,59C 147.22,57.1401 150.886,55.3068 154.5,53.5 Z"/></g>
</svg>
