<?xml version="1.0" encoding="UTF-8"?>
<!DOCTYPE svg PUBLIC "-//W3C//DTD SVG 1.1//EN" "http://www.w3.org/Graphics/SVG/1.1/DTD/svg11.dtd">
<svg xmlns="http://www.w3.org/2000/svg" version="1.1" width="512px" height="512px" style="shape-rendering:geometricPrecision; text-rendering:geometricPrecision; image-rendering:optimizeQuality; fill-rule:evenodd; clip-rule:evenodd" xmlns:xlink="http://www.w3.org/1999/xlink">
<g><path style="opacity:0.963" fill="#fefffe" d="M 511.5,182.5 C 511.5,186.5 511.5,190.5 511.5,194.5C 505.415,204.137 497.082,206.637 486.5,202C 400.353,113.407 296.686,82.74 175.5,110C 116.393,126.7 66.0599,157.366 24.5,202C 13.309,207.054 4.97564,204.221 -0.5,193.5C -0.5,189.833 -0.5,186.167 -0.5,182.5C 5.83031,173.657 13.1636,165.49 21.5,158C 111.066,79.0193 214.733,51.3527 332.5,75C 400.769,91.3713 458.935,124.871 507,175.5C 508.788,177.76 510.288,180.093 511.5,182.5 Z"/></g>
<g><path style="opacity:0.96" fill="#fefffe" d="M 234.5,169.5 C 315.249,164.984 382.749,192.317 437,251.5C 442.267,265.637 437.601,274.303 423,277.5C 419.263,277.025 415.763,275.858 412.5,274C 357.727,214.743 290.393,192.409 210.5,207C 165.93,217.603 128.597,239.936 98.5,274C 86.1565,280.215 77.3231,277.048 72,264.5C 71.2676,259.961 71.9342,255.628 74,251.5C 116.875,203.645 170.375,176.311 234.5,169.5 Z"/></g>
<g><path style="opacity:0.96" fill="#fefffe" d="M 246.5,271.5 C 293.076,270.05 331.576,286.716 362,321.5C 369.304,332.617 367.471,341.783 356.5,349C 351.411,349.826 346.411,349.492 341.5,348C 302.501,303 256.168,293.334 202.5,319C 190.289,327.206 179.289,336.873 169.5,348C 152.403,352.548 144.236,346.048 145,328.5C 160.536,305.645 181.369,289.478 207.5,280C 220.29,275.544 233.29,272.711 246.5,271.5 Z"/></g>
<g><path style="opacity:0.964" fill="#fefffe" d="M 248.5,374.5 C 268.121,372.387 281.621,380.387 289,398.5C 293.834,419.667 286.334,434.5 266.5,443C 245.318,447.826 230.485,440.326 222,420.5C 217.227,397.147 226.061,381.814 248.5,374.5 Z M 254.5,407.5 C 257.861,408.203 258.194,409.537 255.5,411.5C 253.358,410.563 253.024,409.23 254.5,407.5 Z"/></g>
</svg>
