<?xml version="1.0" encoding="UTF-8"?>
<!DOCTYPE svg PUBLIC "-//W3C//DTD SVG 1.1//EN" "http://www.w3.org/Graphics/SVG/1.1/DTD/svg11.dtd">
<svg xmlns="http://www.w3.org/2000/svg" version="1.1" width="512px" height="512px" style="shape-rendering:geometricPrecision; text-rendering:geometricPrecision; image-rendering:optimizeQuality; fill-rule:evenodd; clip-rule:evenodd" xmlns:xlink="http://www.w3.org/1999/xlink">
<g><path style="opacity:0.988" fill="#fefffe" d="M 239.5,-0.5 C 250.167,-0.5 260.833,-0.5 271.5,-0.5C 321.488,7.97878 356.321,35.6454 376,82.5C 379.434,91.9016 381.767,101.568 383,111.5C 383.5,138.165 383.667,164.831 383.5,191.5C 410.574,186.554 430.741,195.888 444,219.5C 445.202,222.774 446.202,226.107 447,229.5C 447.667,310.833 447.667,392.167 447,473.5C 441.651,493.348 429.151,506.015 409.5,511.5C 306.833,511.5 204.167,511.5 101.5,511.5C 81.8488,506.015 69.3488,493.348 64,473.5C 63.3333,392.167 63.3333,310.833 64,229.5C 69.1667,209.667 81.6667,197.167 101.5,192C 110.16,191.5 118.827,191.334 127.5,191.5C 127.333,164.831 127.5,138.165 128,111.5C 136.158,61.3477 163.658,26.5143 210.5,7C 220.095,3.68558 229.762,1.18558 239.5,-0.5 Z M 254.5,31.5 C 296.559,33.4348 326.392,53.4348 344,91.5C 346.783,98.9638 348.783,106.63 350,114.5C 351.364,140.145 351.864,165.811 351.5,191.5C 287.5,191.5 223.5,191.5 159.5,191.5C 159.136,165.811 159.636,140.145 161,114.5C 168.078,75.0877 190.578,48.921 228.5,36C 237.148,33.5155 245.815,32.0155 254.5,31.5 Z M 111.5,223.5 C 207.501,223.333 303.501,223.5 399.5,224C 408.667,225.167 413.833,230.333 415,239.5C 415.667,314.167 415.667,388.833 415,463.5C 413.833,472.667 408.667,477.833 399.5,479C 303.5,479.667 207.5,479.667 111.5,479C 102.333,477.833 97.1667,472.667 96,463.5C 95.3333,388.833 95.3333,314.167 96,239.5C 97.3459,230.322 102.513,224.989 111.5,223.5 Z"/></g>
</svg>
