<?xml version="1.0"?>
<svg xmlns="http://www.w3.org/2000/svg" xmlns:xlink="http://www.w3.org/1999/xlink" xmlns:svgjs="http://svgjs.com/svgjs" version="1.1" width="512" height="512" x="0" y="0" viewBox="0 0 24 24" style="enable-background:new 0 0 512 512" xml:space="preserve" class=""><g><path xmlns="http://www.w3.org/2000/svg" d="m22 12a1 1 0 0 0 -1 1v7h-18v-7a1 1 0 0 0 -2 0v8a1 1 0 0 0 1 1h20a1 1 0 0 0 1-1v-8a1 1 0 0 0 -1-1z" fill="#ffffff" data-original="#000000" class=""/><path xmlns="http://www.w3.org/2000/svg" d="m12 2a1 1 0 0 0 -1 1v11.586l-2.293-2.293a1 1 0 1 0 -1.414 1.414l4 4a1 1 0 0 0 .325.216.986.986 0 0 0 .764 0 1 1 0 0 0 .325-.216l4-4a1 1 0 0 0 -1.414-1.414l-2.293 2.293v-11.586a1 1 0 0 0 -1-1z" fill="#ffffff" data-original="#000000" class=""/></g></svg>
