<?xml version="1.0"?>
<svg xmlns="http://www.w3.org/2000/svg" xmlns:xlink="http://www.w3.org/1999/xlink" xmlns:svgjs="http://svgjs.com/svgjs" version="1.1" width="512" height="512" x="0" y="0" viewBox="0 0 512 512" style="enable-background:new 0 0 512 512" xml:space="preserve" class=""><g><path xmlns="http://www.w3.org/2000/svg" d="m427.1 0h-304.489a43.049 43.049 0 0 0 -43 43v40.881h-11.424a26.283 26.283 0 1 0 0 52.565h11.424v93.271h-11.424a26.283 26.283 0 1 0 0 52.566h11.424v93.271h-11.424a26.283 26.283 0 1 0 0 52.565h11.424v40.881a43.049 43.049 0 0 0 43 43h304.489a43.049 43.049 0 0 0 43-43v-426a43.049 43.049 0 0 0 -43-43zm-369.2 110.164a10.3 10.3 0 0 1 10.287-10.283h38.851a10.283 10.283 0 0 1 0 20.565h-38.851a10.294 10.294 0 0 1 -10.287-10.282zm0 145.836a10.3 10.3 0 0 1 10.283-10.283h38.851a10.283 10.283 0 0 1 0 20.566h-38.847a10.3 10.3 0 0 1 -10.287-10.283zm0 145.836a10.294 10.294 0 0 1 10.283-10.282h38.851a10.283 10.283 0 0 1 0 20.565h-38.847a10.3 10.3 0 0 1 -10.287-10.283zm37.711 67.164v-40.881h11.427a26.283 26.283 0 0 0 0-52.565h-11.427v-93.271h11.427a26.283 26.283 0 0 0 0-52.566h-11.427v-93.271h11.427a26.283 26.283 0 0 0 0-52.565h-11.427v-40.881a27.031 27.031 0 0 1 27-27h59.236v480h-59.236a27.031 27.031 0 0 1 -27-27zm358.489 0a27.031 27.031 0 0 1 -27 27h-229.253v-480h229.253a27.031 27.031 0 0 1 27 27zm-200.682-201.886h145.106a8 8 0 0 0 8-8 80.553 80.553 0 0 0 -161.106 0 8 8 0 0 0 8 8zm72.554-72.552a64.65 64.65 0 0 1 64.059 56.552h-128.12a64.651 64.651 0 0 1 64.061-56.552zm0-17.962a38.865 38.865 0 1 0 -38.866-38.865 38.909 38.909 0 0 0 38.866 38.865zm0-61.729a22.865 22.865 0 1 1 -22.866 22.864 22.89 22.89 0 0 1 22.866-22.864zm102.794 208.465a8 8 0 0 1 -8 8h-189.589a8 8 0 0 1 0-16h189.589a8 8 0 0 1 8 8zm0 40.9a8 8 0 0 1 -8 8h-189.589a8 8 0 1 1 0-16h189.589a8 8 0 0 1 8 7.996zm0 40.9a8 8 0 0 1 -8 8h-189.589a8 8 0 0 1 0-16h189.589a8 8 0 0 1 8 7.993z" fill="#ffffff" data-original="#000000"/></g></svg>
