<?xml version="1.0" encoding="UTF-8" standalone="no"?>
<!DOCTYPE svg PUBLIC "-//W3C//DTD SVG 1.1//EN" "http://www.w3.org/Graphics/SVG/1.1/DTD/svg11.dtd">
<svg width="100%" height="100%" viewBox="0 0 319 494" version="1.1" xmlns="http://www.w3.org/2000/svg" xmlns:xlink="http://www.w3.org/1999/xlink" xml:space="preserve" xmlns:serif="http://www.serif.com/" style="fill-rule:evenodd;clip-rule:evenodd;stroke-linejoin:round;stroke-miterlimit:2;">
    <g transform="matrix(1,0,0,1,-96.6452,-8)">
        <g transform="matrix(0.964844,0,0,0.964844,96.6452,8)">
            <path d="M165.161,478.778C92.56,478.778 33.496,420.177 33.496,348.145C33.496,276.109 92.56,217.512 165.161,217.512C237.762,217.512 296.827,276.113 296.827,348.149C296.827,420.181 237.762,478.778 165.161,478.778ZM165.161,229.899C99.391,229.899 45.883,282.948 45.883,348.149C45.883,413.351 99.391,466.391 165.161,466.391C230.931,466.391 284.44,413.347 284.44,348.145C284.44,282.944 230.931,229.899 165.161,229.899Z" style="fill:white;fill-rule:nonzero;"/>
            <path d="M265.173,231.859C261.75,231.859 258.98,229.085 258.98,225.665L258.98,105.383C258.98,54.105 216.895,12.387 165.161,12.387C113.427,12.387 71.343,54.105 71.343,105.383L71.343,225.665C71.343,229.085 68.573,231.859 65.149,231.859C61.726,231.859 58.956,229.085 58.956,225.665L58.956,105.383C58.956,47.274 106.601,0 165.161,0C223.722,0 271.367,47.274 271.367,105.383L271.367,225.665C271.367,229.085 268.593,231.859 265.173,231.859Z" style="fill:white;fill-rule:nonzero;"/>
            <path d="M165.161,512C74.093,512 0,438.496 0,348.145C0,298.552 22.331,252.153 61.266,220.839C69.323,214.363 77.835,208.694 86.577,203.996C110.552,191.105 137.726,184.29 165.157,184.29C192.589,184.29 219.762,191.105 243.742,203.996C252.484,208.694 260.996,214.363 269.052,220.839C307.992,252.153 330.323,298.556 330.323,348.145C330.323,438.496 256.23,512 165.161,512ZM165.161,196.677C139.766,196.677 114.621,202.98 92.444,214.907C84.371,219.246 76.496,224.488 69.028,230.492C33.032,259.444 12.387,302.327 12.387,348.145C12.387,431.665 80.919,499.613 165.161,499.613C249.403,499.613 317.935,431.665 317.935,348.145C317.935,302.323 297.29,259.444 261.294,230.492C253.827,224.488 245.952,219.242 237.883,214.907C215.702,202.98 190.556,196.677 165.161,196.677Z" style="fill:white;fill-rule:nonzero;"/>
            <g transform="matrix(0.388499,0,0,0.388499,172.049,346.128)">
                <g transform="matrix(1,0,0,1,-256,-256)">
                    <g>
                        <path d="M473.53,371.3L414.29,336.75L470.57,320.57C474.846,319.343 477.813,315.404 477.813,310.955C477.813,305.467 473.298,300.952 467.81,300.952C466.876,300.952 465.947,301.082 465.05,301.34L390.4,322.81L368.45,310L424.73,293.82C429.026,292.608 432.015,288.659 432.015,284.196C432.015,278.71 427.501,274.196 422.015,274.196C421.062,274.196 420.114,274.332 419.2,274.6L344.55,296.06L316.8,279.88C318.559,275.437 319.817,270.812 320.55,266.09L375.85,266.17C381.336,266.17 385.85,261.656 385.85,256.17C385.85,250.684 381.336,246.17 375.85,246.17L320.56,246.09C319.82,241.297 318.549,236.601 316.77,232.09L344.52,215.9L419.17,237.36C420.084,237.628 421.032,237.764 421.985,237.764C427.471,237.764 431.985,233.25 431.985,227.764C431.985,223.301 428.996,219.352 424.7,218.14L368.45,202L390.4,189.2L465.05,210.67C465.948,210.926 466.876,211.057 467.81,211.06C473.294,211.057 477.805,206.544 477.805,201.06C477.805,196.615 474.841,192.679 470.57,191.45L414.29,175.26L473.53,140.71C476.742,138.961 478.748,135.585 478.748,131.928C478.748,126.442 474.234,121.928 468.748,121.928C466.879,121.928 465.046,122.452 463.46,123.44L404.22,158L417.84,101C418.044,100.196 418.147,99.371 418.147,98.542C418.147,93.056 413.633,88.542 408.147,88.542C403.485,88.542 399.412,91.802 398.39,96.35L380.32,171.89L358.37,184.69L372,127.76C372.204,126.956 372.307,126.131 372.307,125.302C372.307,119.816 367.793,115.302 362.307,115.302C357.645,115.302 353.572,118.562 352.55,123.11L334.48,198.65L306.7,214.85C303.86,211.357 300.67,208.164 297.18,205.32L325.09,157.54C325.984,156.009 326.456,154.268 326.456,152.495C326.456,147.009 321.941,142.494 316.455,142.494C312.905,142.494 309.611,144.385 307.82,147.45L279.92,195.22C275.437,193.439 270.767,192.167 266,191.43L266,159.32L322.15,105.65C324.123,103.764 325.241,101.15 325.241,98.42C325.241,92.934 320.726,88.419 315.24,88.419C312.667,88.419 310.19,89.412 308.33,91.19L266,131.65L266,106.25L322.15,52.58C324.123,50.694 325.241,48.08 325.241,45.35C325.241,39.864 320.726,35.349 315.24,35.349C312.667,35.349 310.19,36.342 308.33,38.12L266,78.58L266,10C266,4.514 261.486,0 256,0C250.514,-0 246,4.514 246,10L246,78.58L203.67,38.12C201.81,36.342 199.333,35.349 196.76,35.349C191.274,35.349 186.759,39.864 186.759,45.35C186.759,48.08 187.877,50.694 189.85,52.58L246,106.25L246,131.65L203.67,91.19C201.81,89.412 199.333,88.419 196.76,88.419C191.274,88.419 186.759,92.934 186.759,98.42C186.759,101.15 187.877,103.764 189.85,105.65L246,159.32L246,191.43C241.233,192.167 236.563,193.439 232.08,195.22L204.18,147.45C202.389,144.385 199.095,142.494 195.545,142.494C190.059,142.494 185.544,147.009 185.544,152.495C185.544,154.268 186.016,156.009 186.91,157.54L214.82,205.32C211.33,208.164 208.14,211.357 205.3,214.85L177.52,198.65L159.45,123.11C158.428,118.562 154.355,115.302 149.693,115.302C144.207,115.302 139.693,119.816 139.693,125.302C139.693,126.131 139.796,126.956 140,127.76L153.62,184.76L131.68,171.96L113.61,96.37C112.637,91.763 108.535,88.437 103.826,88.437C98.34,88.437 93.826,92.951 93.826,98.437C93.826,99.302 93.938,100.164 94.16,101L107.78,158L48.54,123.43C46.954,122.442 45.121,121.918 43.252,121.918C37.766,121.918 33.252,126.432 33.252,131.918C33.252,135.575 35.258,138.951 38.47,140.7L97.71,175.25L41.43,191.44C37.159,192.669 34.195,196.605 34.195,201.05C34.195,206.53 38.7,211.042 44.18,211.05C45.117,211.048 46.049,210.917 46.95,210.66L121.6,189.19L143.6,201.99L87.27,218.17C82.974,219.382 79.985,223.331 79.985,227.794C79.985,233.28 84.499,237.794 89.985,237.794C90.938,237.794 91.886,237.658 92.8,237.39L167.45,215.93L195.2,232.12C193.444,236.564 192.183,241.189 191.44,245.91L136.15,245.83C130.664,245.83 126.15,250.344 126.15,255.83C126.15,261.316 130.664,265.83 136.15,265.83L191.44,265.91C192.175,270.704 193.446,275.4 195.23,279.91L167.48,296.1L92.8,274.61C91.886,274.342 90.938,274.206 89.985,274.206C84.499,274.206 79.985,278.72 79.985,284.206C79.985,288.669 82.974,292.618 87.27,293.83L143.55,310L121.55,322.8L47,301.34C46.103,301.082 45.174,300.952 44.24,300.952C38.752,300.952 34.237,305.467 34.237,310.955C34.237,315.404 37.204,319.343 41.48,320.57L97.76,336.75L38.47,371.3C35.399,373.089 33.505,376.386 33.505,379.94C33.505,385.426 38.019,389.94 43.505,389.94C43.51,389.94 43.515,389.94 43.52,389.94C45.279,389.938 47.005,389.464 48.52,388.57L107.78,354L94.16,411C92.916,416.319 96.249,421.723 101.56,423C102.323,423.186 103.105,423.28 103.89,423.28C108.501,423.277 112.54,420.085 113.61,415.6L131.68,340.06L153.62,327.26L140,384.24C139.796,385.044 139.693,385.869 139.693,386.698C139.693,392.184 144.207,396.698 149.693,396.698C154.355,396.698 158.428,393.438 159.45,388.89L177.52,313.35L205.3,297.15C208.14,300.643 211.33,303.836 214.82,306.68L186.91,354.46C186.016,355.991 185.544,357.732 185.544,359.505C185.544,364.991 190.059,369.506 195.545,369.506C199.095,369.506 202.389,367.615 204.18,364.55L232.08,316.78C236.563,318.561 241.233,319.833 246,320.57L246,352.68L189.85,406.35C187.877,408.236 186.759,410.85 186.759,413.58C186.759,419.066 191.274,423.581 196.76,423.581C199.333,423.581 201.81,422.588 203.67,420.81L246,380.35L246,405.75L189.85,459.42C187.877,461.306 186.759,463.92 186.759,466.65C186.759,472.136 191.274,476.651 196.76,476.651C199.333,476.651 201.81,475.658 203.67,473.88L246,433.42L246,502C246,507.486 250.514,512 256,512C261.486,512 266,507.486 266,502L266,433.42L308.33,473.88C310.19,475.658 312.667,476.651 315.24,476.651C320.726,476.651 325.241,472.136 325.241,466.65C325.241,463.92 324.123,461.306 322.15,459.42L266,405.75L266,380.35L308.33,420.81C310.19,422.588 312.667,423.581 315.24,423.581C320.726,423.581 325.241,419.066 325.241,413.58C325.241,410.85 324.123,408.236 322.15,406.35L266,352.68L266,320.57C270.767,319.833 275.437,318.561 279.92,316.78L307.82,364.55C309.602,367.637 312.905,369.546 316.47,369.55C321.952,369.544 326.459,365.032 326.459,359.55C326.459,357.775 325.986,356.032 325.09,354.5L297.18,306.72C300.67,303.876 303.86,300.683 306.7,297.19L334.48,313.39L352.55,388.93C353.63,393.408 357.669,396.589 362.275,396.589C367.763,396.589 372.279,392.073 372.279,386.585C372.279,385.795 372.185,385.008 372,384.24L358.37,327.29L380.32,340.09L398.39,415.63C399.46,420.115 403.499,423.307 408.11,423.31C408.895,423.31 409.677,423.216 410.44,423.03C415.751,421.753 419.084,416.349 417.84,411.03L404.22,354.03L463.46,388.58C464.975,389.474 466.701,389.948 468.46,389.95C473.933,389.931 478.425,385.423 478.425,379.95C478.425,376.396 476.531,373.099 473.46,371.31L473.53,371.3ZM256,301.34C231.127,301.34 210.66,280.873 210.66,256C210.66,231.127 231.127,210.66 256,210.66C280.873,210.66 301.34,231.127 301.34,256C301.313,280.862 280.862,301.313 256,301.34Z" style="fill:white;fill-rule:nonzero;"/>
                    </g>
                </g>
            </g>
        </g>
    </g>
</svg>
