<?xml version="1.0" encoding="UTF-8"?>
<!DOCTYPE svg PUBLIC "-//W3C//DTD SVG 1.1//EN" "http://www.w3.org/Graphics/SVG/1.1/DTD/svg11.dtd">
<svg xmlns="http://www.w3.org/2000/svg" version="1.1" width="512px" height="512px" style="shape-rendering:geometricPrecision; text-rendering:geometricPrecision; image-rendering:optimizeQuality; fill-rule:evenodd; clip-rule:evenodd" xmlns:xlink="http://www.w3.org/1999/xlink">
<g><path style="opacity:0.987" fill="#858685" d="M 239.5,-0.5 C 250.167,-0.5 260.833,-0.5 271.5,-0.5C 325.548,8.7041 361.382,39.3708 379,91.5C 383.049,105.239 384.382,119.239 383,133.5C 378.527,142.482 371.36,145.649 361.5,143C 357,141.167 353.833,138 352,133.5C 351.078,89.4514 330.912,57.9514 291.5,39C 244.614,23.6292 206.114,35.4625 176,74.5C 165.625,90.6263 160.292,108.293 160,127.5C 159.5,148.831 159.333,170.164 159.5,191.5C 242.834,191.333 326.167,191.5 409.5,192C 429.333,197.167 441.833,209.667 447,229.5C 447.667,310.833 447.667,392.167 447,473.5C 441.651,493.348 429.151,506.015 409.5,511.5C 306.833,511.5 204.167,511.5 101.5,511.5C 81.8488,506.015 69.3488,493.348 64,473.5C 63.3333,392.167 63.3333,310.833 64,229.5C 69.1667,209.667 81.6667,197.167 101.5,192C 110.16,191.5 118.827,191.334 127.5,191.5C 127.333,164.831 127.5,138.165 128,111.5C 136.158,61.3477 163.658,26.5143 210.5,7C 220.095,3.68558 229.762,1.18558 239.5,-0.5 Z M 111.5,223.5 C 207.501,223.333 303.501,223.5 399.5,224C 408.667,225.167 413.833,230.333 415,239.5C 415.667,314.167 415.667,388.833 415,463.5C 413.833,472.667 408.667,477.833 399.5,479C 303.5,479.667 207.5,479.667 111.5,479C 102.333,477.833 97.1667,472.667 96,463.5C 95.3333,388.833 95.3333,314.167 96,239.5C 97.3459,230.322 102.513,224.989 111.5,223.5 Z"/></g>
</svg>
